<svg viewBox="0 0 200 200" width="200" height="200" xmlns="http://www.w3.org/2000/svg"><rect width="200" height="200" rx="47.0" fill="#1A3A5C"/><rect x="45.0" y="98.0" width="20" height="52" rx="4" fill="#FFFFFF"/><rect x="75.0" y="78.0" width="20" height="72" rx="4" fill="#FFFFFF"/><rect x="105.0" y="52.0" width="20" height="98" rx="4" fill="#D67D2E"/><rect x="135.0" y="70.0" width="20" height="80" rx="4" fill="#FFFFFF"/><path d="M83 0V700H612V570H245V0ZM233 255V385H569V255Z" transform="translate(24.00,52.00) scale(0.03000,-0.03000)" fill="#FFFFFF"/><path d="M313 -12Q229 -12 152.0 10.5Q75 33 28 69L83 191Q128 159 189.5 138.5Q251 118 314 118Q362 118 391.5 127.5Q421 137 435.0 154.0Q449 171 449 193Q449 221 427.0 237.5Q405 254 369.0 264.5Q333 275 289.5 284.5Q246 294 202.5 308.0Q159 322 123.0 344.0Q87 366 64.5 402.0Q42 438 42 494Q42 554 74.5 603.5Q107 653 172.5 682.5Q238 712 337 712Q403 712 467.0 696.5Q531 681 580 650L530 527Q481 555 432.0 568.5Q383 582 336 582Q289 582 259.0 571.0Q229 560 216.0 542.5Q203 525 203 502Q203 475 225.0 458.5Q247 442 283.0 432.0Q319 422 362.5 412.0Q406 402 449.5 389.0Q493 376 529.0 354.0Q565 332 587.5 296.0Q610 260 610 205Q610 146 577.0 97.0Q544 48 478.5 18.0Q413 -12 313 -12Z" transform="translate(42.57,52.00) scale(0.03000,-0.03000)" fill="#FFFFFF"/></svg>