<svg viewBox="0 0 469 180" width="469" height="180" xmlns="http://www.w3.org/2000/svg"><g transform="translate(24,24)"><rect x="0" y="0" width="132" height="132" rx="31" fill="#1A3A5C"/><rect x="30.3" y="63.7" width="14.0" height="37.3" rx="3.1" fill="#FFFFFF"/><rect x="49.7" y="49.7" width="14.0" height="51.2" rx="3.1" fill="#FFFFFF"/><rect x="69.1" y="31.1" width="14.0" height="69.9" rx="3.1" fill="#D67D2E"/><rect x="88.5" y="45.0" width="14.0" height="55.9" rx="3.1" fill="#FFFFFF"/></g><path d="M83 0V700H612V570H245V0ZM233 255V385H569V255Z" transform="translate(184.00,88.00) scale(0.05400,-0.05400)" fill="#1A3A5C"/><path d="M339 -8Q247 -8 177.5 28.0Q108 64 70.0 126.5Q32 189 32 269Q32 350 69.5 412.5Q107 475 172.0 510.5Q237 546 319 546Q398 546 461.5 512.5Q525 479 562.0 416.5Q599 354 599 267Q599 258 598.0 246.5Q597 235 596 225H159V316H514L454 289Q454 331 437.0 362.0Q420 393 390.0 410.5Q360 428 320 428Q280 428 249.5 410.5Q219 393 202.0 361.5Q185 330 185 287V263Q185 219 204.5 185.5Q224 152 259.5 134.5Q295 117 343 117Q386 117 418.5 130.0Q451 143 478 169L561 79Q524 37 468.0 14.5Q412 -8 339 -8Z" transform="translate(217.43,88.00) scale(0.05400,-0.05400)" fill="#1A3A5C"/><path d="M72 0V538H221V391L193 434Q221 489 272.5 517.5Q324 546 390 546Q464 546 519.5 508.5Q575 471 593 394L538 409Q565 472 624.5 509.0Q684 546 761 546Q825 546 874.5 520.5Q924 495 952.5 442.5Q981 390 981 308V0H825V284Q825 349 798.0 380.0Q771 411 722 411Q688 411 661.0 395.5Q634 380 619.0 349.0Q604 318 604 270V0H448V284Q448 349 421.5 380.0Q395 411 346 411Q312 411 285.0 395.5Q258 380 243.0 349.0Q228 318 228 270V0Z" transform="translate(250.42,88.00) scale(0.05400,-0.05400)" fill="#1A3A5C"/><path d="M313 -12Q229 -12 152.0 10.5Q75 33 28 69L83 191Q128 159 189.5 138.5Q251 118 314 118Q362 118 391.5 127.5Q421 137 435.0 154.0Q449 171 449 193Q449 221 427.0 237.5Q405 254 369.0 264.5Q333 275 289.5 284.5Q246 294 202.5 308.0Q159 322 123.0 344.0Q87 366 64.5 402.0Q42 438 42 494Q42 554 74.5 603.5Q107 653 172.5 682.5Q238 712 337 712Q403 712 467.0 696.5Q531 681 580 650L530 527Q481 555 432.0 568.5Q383 582 336 582Q289 582 259.0 571.0Q229 560 216.0 542.5Q203 525 203 502Q203 475 225.0 458.5Q247 442 283.0 432.0Q319 422 362.5 412.0Q406 402 449.5 389.0Q493 376 529.0 354.0Q565 332 587.5 296.0Q610 260 610 205Q610 146 577.0 97.0Q544 48 478.5 18.0Q413 -12 313 -12Z" transform="translate(305.99,88.00) scale(0.05400,-0.05400)" fill="#1A3A5C"/><path d="M292 -8Q197 -8 144.0 40.5Q91 89 91 185V657H247V187Q247 153 265.0 134.5Q283 116 314 116Q351 116 377 136L419 26Q395 9 361.5 0.5Q328 -8 292 -8ZM8 418V538H381V418Z" transform="translate(339.36,88.00) scale(0.05400,-0.05400)" fill="#1A3A5C"/><path d="M402 0V105L392 128V316Q392 366 361.5 394.0Q331 422 268 422Q225 422 183.5 408.5Q142 395 113 372L57 481Q101 512 163.0 529.0Q225 546 289 546Q412 546 480.0 488.0Q548 430 548 307V0ZM238 -8Q175 -8 130.0 13.5Q85 35 61.0 72.0Q37 109 37 155Q37 203 60.5 239.0Q84 275 135.0 295.5Q186 316 268 316H411V225H285Q230 225 209.5 207.0Q189 189 189 162Q189 132 212.5 114.5Q236 97 277 97Q316 97 347.0 115.5Q378 134 392 170L416 98Q399 46 354.0 19.0Q309 -8 238 -8Z" transform="translate(361.77,88.00) scale(0.05400,-0.05400)" fill="#1A3A5C"/><path d="M292 -8Q197 -8 144.0 40.5Q91 89 91 185V657H247V187Q247 153 265.0 134.5Q283 116 314 116Q351 116 377 136L419 26Q395 9 361.5 0.5Q328 -8 292 -8ZM8 418V538H381V418Z" transform="translate(394.01,88.00) scale(0.05400,-0.05400)" fill="#1A3A5C"/><path d="M253 -8Q184 -8 120.5 8.5Q57 25 20 50L72 162Q109 139 159.5 124.5Q210 110 259 110Q313 110 335.5 123.0Q358 136 358 159Q358 178 340.5 187.5Q323 197 294.0 202.0Q265 207 230.5 212.0Q196 217 161.0 225.5Q126 234 97.0 251.0Q68 268 50.5 297.0Q33 326 33 372Q33 423 62.5 462.0Q92 501 148.0 523.5Q204 546 282 546Q337 546 394.0 534.0Q451 522 489 499L437 388Q398 411 358.5 419.5Q319 428 282 428Q230 428 206.0 414.0Q182 400 182 378Q182 358 199.5 348.0Q217 338 246.0 332.0Q275 326 309.5 321.5Q344 317 379.0 308.0Q414 299 442.5 282.5Q471 266 489.0 237.5Q507 209 507 163Q507 113 477.0 74.5Q447 36 390.5 14.0Q334 -8 253 -8Z" transform="translate(416.42,88.00) scale(0.05400,-0.05400)" fill="#1A3A5C"/><path d="M309 -8Q229 -8 156.0 16.5Q83 41 41 80L78 158Q118 123 180.0 100.0Q242 77 309 77Q370 77 408.0 91.0Q446 105 464.0 129.5Q482 154 482 185Q482 221 458.5 243.0Q435 265 397.5 278.5Q360 292 315.0 302.0Q270 312 224.5 325.5Q179 339 141.5 360.0Q104 381 81.0 416.5Q58 452 58 508Q58 562 86.5 607.5Q115 653 174.5 680.5Q234 708 326 708Q387 708 447.0 692.0Q507 676 551 646L518 566Q473 596 423.0 609.5Q373 623 326 623Q267 623 229.0 608.0Q191 593 173.5 568.0Q156 543 156 512Q156 475 179.5 453.0Q203 431 240.5 418.0Q278 405 323.0 394.5Q368 384 413.5 371.0Q459 358 496.5 337.0Q534 316 557.0 281.0Q580 246 580 191Q580 138 551.0 92.5Q522 47 461.5 19.5Q401 -8 309 -8Z" transform="translate(184.00,118.00) scale(0.01800,-0.01800)" fill="#6b7280"/><path d="M244 0V613H4V700H583V613H343V0Z" transform="translate(199.14,118.00) scale(0.01800,-0.01800)" fill="#6b7280"/><path d="M-1 0 316 700H415L733 0H628L345 644H385L102 0ZM134 175 161 255H555L584 175Z" transform="translate(213.66,118.00) scale(0.01800,-0.01800)" fill="#6b7280"/><path d="M244 0V613H4V700H583V613H343V0Z" transform="translate(230.80,118.00) scale(0.01800,-0.01800)" fill="#6b7280"/><path d="M105 0V700H205V0Z" transform="translate(245.33,118.00) scale(0.01800,-0.01800)" fill="#6b7280"/><path d="M309 -8Q229 -8 156.0 16.5Q83 41 41 80L78 158Q118 123 180.0 100.0Q242 77 309 77Q370 77 408.0 91.0Q446 105 464.0 129.5Q482 154 482 185Q482 221 458.5 243.0Q435 265 397.5 278.5Q360 292 315.0 302.0Q270 312 224.5 325.5Q179 339 141.5 360.0Q104 381 81.0 416.5Q58 452 58 508Q58 562 86.5 607.5Q115 653 174.5 680.5Q234 708 326 708Q387 708 447.0 692.0Q507 676 551 646L518 566Q473 596 423.0 609.5Q373 623 326 623Q267 623 229.0 608.0Q191 593 173.5 568.0Q156 543 156 512Q156 475 179.5 453.0Q203 431 240.5 418.0Q278 405 323.0 394.5Q368 384 413.5 371.0Q459 358 496.5 337.0Q534 316 557.0 281.0Q580 246 580 191Q580 138 551.0 92.5Q522 47 461.5 19.5Q401 -8 309 -8Z" transform="translate(254.87,118.00) scale(0.01800,-0.01800)" fill="#6b7280"/><path d="M244 0V613H4V700H583V613H343V0Z" transform="translate(270.00,118.00) scale(0.01800,-0.01800)" fill="#6b7280"/><path d="M105 0V700H205V0Z" transform="translate(284.53,118.00) scale(0.01800,-0.01800)" fill="#6b7280"/><path d="M418 -8Q338 -8 270.5 18.5Q203 45 153.5 93.5Q104 142 76.0 207.0Q48 272 48 350Q48 428 76.0 493.0Q104 558 154.0 606.5Q204 655 271.5 681.5Q339 708 419 708Q500 708 568.5 680.5Q637 653 685 599L620 536Q580 578 530.0 598.5Q480 619 423 619Q364 619 313.5 599.0Q263 579 226.0 543.0Q189 507 168.5 457.5Q148 408 148 350Q148 292 168.5 242.5Q189 193 226.0 157.0Q263 121 313.5 101.0Q364 81 423 81Q480 81 530.0 101.5Q580 122 620 165L685 102Q637 48 568.5 20.0Q500 -8 418 -8Z" transform="translate(294.07,118.00) scale(0.01800,-0.01800)" fill="#6b7280"/><path d="M309 -8Q229 -8 156.0 16.5Q83 41 41 80L78 158Q118 123 180.0 100.0Q242 77 309 77Q370 77 408.0 91.0Q446 105 464.0 129.5Q482 154 482 185Q482 221 458.5 243.0Q435 265 397.5 278.5Q360 292 315.0 302.0Q270 312 224.5 325.5Q179 339 141.5 360.0Q104 381 81.0 416.5Q58 452 58 508Q58 562 86.5 607.5Q115 653 174.5 680.5Q234 708 326 708Q387 708 447.0 692.0Q507 676 551 646L518 566Q473 596 423.0 609.5Q373 623 326 623Q267 623 229.0 608.0Q191 593 173.5 568.0Q156 543 156 512Q156 475 179.5 453.0Q203 431 240.5 418.0Q278 405 323.0 394.5Q368 384 413.5 371.0Q459 358 496.5 337.0Q534 316 557.0 281.0Q580 246 580 191Q580 138 551.0 92.5Q522 47 461.5 19.5Q401 -8 309 -8Z" transform="translate(310.86,118.00) scale(0.01800,-0.01800)" fill="#6b7280"/></svg>